<svg width="50" height="57" viewBox="0 0 50 57" fill="none" xmlns="http://www.w3.org/2000/svg">
<path d="M45.6006 6.87001C44.3636 6.87001 43.2633 7.35705 42.4741 8.1523C41.6834 8.94908 41.2003 10.0595 41.2003 11.3037V18.1884V20.79L39.1416 19.2206C38.7679 18.9358 38.3526 18.703 37.8971 18.5487C37.4835 18.4086 37.0208 18.329 36.5064 18.329C35.9549 18.329 35.4077 18.4218 34.8878 18.6066C34.3736 18.7894 33.8807 19.0618 33.4305 19.423L32.0748 20.5106L31.437 18.8865C31.0866 17.9942 30.5238 17.2872 29.8348 16.8055C29.1339 16.3153 28.292 16.0488 27.4017 16.0488C26.8858 16.0488 26.422 16.1275 26.0088 16.2657C25.5491 16.4193 25.13 16.6501 24.7556 16.9309L22.7068 18.4671V15.8935V4.43367C22.7068 3.1857 22.225 2.07593 21.4359 1.28071C20.6469 0.485588 19.5459 0 18.3075 0C17.0719 0 15.97 0.486513 15.1796 1.28299C14.3903 2.07829 13.9072 3.18714 13.9072 4.43367V22.5394V25.4498L11.763 23.5009C9.58329 21.5197 7.31403 19.7705 5.25774 18.9214C3.51828 18.2031 1.94706 18.1667 0.791747 19.3234C-1.54371 21.6853 1.61017 26.4302 6.04054 33.0952C8.33508 36.547 10.9437 40.4715 13.2938 44.8402C15.6425 49.0572 18.405 52.0057 21.3838 53.9382C24.711 56.0968 28.3311 57 31.952 57C36.9444 57 41.4566 54.9683 44.7203 51.6793C47.984 48.3902 50 43.8428 50 38.8116V11.3037C50 10.0595 49.5172 8.94897 48.7266 8.15219C47.9375 7.35698 46.8375 6.87001 45.6006 6.87001Z" fill="#4A249D"/>
</svg>
