<svg width="217" height="217" viewBox="0 0 217 217" fill="none" xmlns="http://www.w3.org/2000/svg">
<g clip-path="url(#clip0_694_2)">
<path d="M108.5 217C87.0408 217 66.0634 210.637 48.2207 198.714C30.3779 186.792 16.4712 169.847 8.25912 150.021C0.0470115 130.195 -2.10165 108.38 2.08485 87.3327C6.27134 66.2858 16.605 46.953 31.779 31.779C46.953 16.605 66.2858 6.27134 87.3327 2.08485C108.38 -2.10165 130.195 0.0470115 150.021 8.25912C169.847 16.4712 186.792 30.3779 198.714 48.2207C210.637 66.0634 217 87.0408 217 108.5C216.969 137.266 205.528 164.846 185.187 185.187C164.846 205.528 137.266 216.969 108.5 217ZM108.5 18.0834C90.6173 18.0834 73.1362 23.3862 58.2672 33.3213C43.3983 43.2564 31.8094 57.3776 24.9659 73.8991C18.1225 90.4206 16.332 108.6 19.8207 126.139C23.3095 143.679 31.9208 159.789 44.5658 172.434C57.2108 185.079 73.3215 193.691 90.8606 197.179C108.4 200.668 126.58 198.878 143.101 192.034C159.622 185.191 173.744 173.602 183.679 158.733C193.614 143.864 198.917 126.383 198.917 108.5C198.89 84.5281 189.356 61.5456 172.405 44.5949C155.454 27.6442 132.472 18.1097 108.5 18.0834Z" fill="#8B5CF6"/>
<path d="M72.3333 162.75C66.9685 162.75 61.7242 161.159 57.2635 158.179C52.8028 155.198 49.3261 150.962 47.2731 146.005C45.2201 141.049 44.6829 135.595 45.7295 130.333C46.7761 125.071 49.3596 120.238 53.1531 116.445C56.9466 112.651 61.7798 110.068 67.0415 109.021C72.3032 107.975 77.7572 108.512 82.7136 110.565C87.6701 112.618 91.9064 116.094 94.8869 120.555C97.8675 125.016 99.4583 130.26 99.4583 135.625C99.4583 142.819 96.6005 149.718 91.5136 154.805C86.4267 159.892 79.5273 162.75 72.3333 162.75ZM72.3333 126.583C70.545 126.583 68.7969 127.114 67.31 128.107C65.8231 129.101 64.6643 130.513 63.9799 132.165C63.2956 133.817 63.1165 135.635 63.4654 137.389C63.8143 139.143 64.6754 140.754 65.9399 142.018C67.2044 143.283 68.8155 144.144 70.5694 144.493C72.3233 144.842 74.1413 144.663 75.7934 143.978C77.4456 143.294 78.8577 142.135 79.8512 140.648C80.8447 139.161 81.375 137.413 81.375 135.625C81.375 133.227 80.4224 130.927 78.7267 129.232C77.0311 127.536 74.7313 126.583 72.3333 126.583Z" fill="#8B5CF6"/>
<path d="M135.625 153.708C130.26 153.708 125.016 152.117 120.555 149.137C116.094 146.156 112.618 141.92 110.565 136.964C108.512 132.007 107.975 126.553 109.021 121.292C110.068 116.03 112.651 111.197 116.445 107.403C120.238 103.61 125.071 101.026 130.333 99.9795C135.595 98.9329 141.049 99.4701 146.005 101.523C150.962 103.576 155.198 107.053 158.179 111.513C161.159 115.974 162.75 121.219 162.75 126.583C162.75 133.777 159.892 140.677 154.805 145.764C149.718 150.851 142.819 153.708 135.625 153.708ZM135.625 117.542C133.837 117.542 132.089 118.072 130.602 119.065C129.115 120.059 127.956 121.471 127.272 123.123C126.587 124.775 126.408 126.593 126.757 128.347C127.106 130.101 127.967 131.712 129.232 132.977C130.496 134.241 132.107 135.102 133.861 135.451C135.615 135.8 137.433 135.621 139.085 134.937C140.737 134.252 142.149 133.094 143.143 131.607C144.136 130.12 144.667 128.372 144.667 126.583C144.667 124.185 143.714 121.886 142.018 120.19C140.323 118.494 138.023 117.542 135.625 117.542Z" fill="#8B5CF6"/>
<path d="M99.4583 135.625H81.375V74.5576L162.75 51.3024V126.583H144.667V75.2809L99.4583 88.1924V135.625Z" fill="#8B5CF6"/>
</g>
<defs>
<clipPath id="clip0_694_2">
<rect width="217" height="217" fill="white"/>
</clipPath>
</defs>
</svg>
